<svg width="26" height="37" viewBox="0 0 26 37" fill="none" xmlns="http://www.w3.org/2000/svg">
<path d="M1.83927 18.7674L11.9119 35.6484C12.1408 36.0318 12.5539 36.2662 12.9998 36.2662C13.4457 36.2662 13.8588 36.0318 14.0877 35.6484L24.1877 18.7191C24.6738 17.8162 24.9992 17.0511 25.2107 16.3101C25.5131 15.2519 25.6666 14.1529 25.6666 13.0445C25.6666 11.3863 25.3295 9.77767 24.6641 8.26168C24.0232 6.80269 23.1061 5.49273 21.9396 4.3695C20.7769 3.24939 19.4224 2.3699 17.915 1.75581C14.7979 0.48667 11.202 0.48667 8.08477 1.75581C6.57754 2.3699 5.22305 3.24954 4.06094 4.3695C2.89377 5.49273 1.97658 6.80269 1.33592 8.26228C0.670475 9.77753 0.333374 11.3863 0.333374 13.0445C0.333374 14.1529 0.48671 15.2519 0.789225 16.3107C1.0006 17.051 1.32597 17.816 1.83927 18.7674ZM3.65526 9.28085C4.16247 8.12556 4.8904 7.0871 5.81814 6.19395C6.74839 5.29783 7.83258 4.59394 9.03982 4.10216C10.2941 3.59124 11.6263 3.33281 13 3.33281C14.3736 3.33281 15.7058 3.59139 16.9601 4.10216C18.1674 4.59379 19.2517 5.29768 20.1824 6.19395C21.1096 7.0871 21.8375 8.12542 22.3447 9.28026C22.868 10.4727 23.1334 11.7388 23.1334 13.0443C23.1334 13.9176 23.0128 14.7822 22.7753 15.6142C22.6152 16.1746 22.3554 16.7795 21.9849 17.4697L13 32.5275L4.04238 17.518C3.64472 16.7795 3.38495 16.1746 3.22479 15.6148C2.98729 14.7824 2.86675 13.9177 2.86675 13.0443C2.86661 11.7388 3.13201 10.4727 3.65526 9.28085Z" fill="#333333"/>
<path d="M13 19.8035C16.492 19.8035 19.3333 16.9621 19.3333 13.4701C19.3333 9.97811 16.492 7.13672 13 7.13672C9.50796 7.13672 6.66656 9.97811 6.66656 13.4701C6.66656 16.9621 9.50796 19.8035 13 19.8035ZM13 9.6701C15.0955 9.6701 16.8 11.3746 16.8 13.4701C16.8 15.5656 15.0955 17.2701 13 17.2701C10.9045 17.2701 9.19995 15.5656 9.19995 13.4701C9.19995 11.3746 10.9045 9.6701 13 9.6701Z" fill="#333333"/>
</svg>
