<?xml version="1.0" encoding="utf-8"?><svg xmlns="http://www.w3.org/2000/svg" xmlns:xlink="http://www.w3.org/1999/xlink"><symbol viewBox="0 0 26 19" id="arrow-left" xmlns="http://www.w3.org/2000/svg"><path d="M26 9.5H2m0 0l8-8m-8 8l8 8"/></symbol><symbol viewBox="0 0 10 10" id="arrow-up" xmlns="http://www.w3.org/2000/svg"><path d="M4.882 10V1.936m0 0L.85 5.968m4.032-4.032l4.032 4.032"/></symbol><symbol viewBox="0 0 22 24" id="basket" xmlns="http://www.w3.org/2000/svg"><g clip-path="url(#ca)"><path d="M10.363 18.443a2.046 2.046 0 00-2.045 2.042 2.046 2.046 0 004.09 0 2.046 2.046 0 00-2.045-2.042zm6.134 0a2.046 2.046 0 00-2.045 2.042 2.046 2.046 0 004.089 0 2.046 2.046 0 00-2.044-2.042zm3.978-8.199L7.413 6.891a.614.614 0 00-.75.73L8.67 16.4h-.786L5.482 5.895a.613.613 0 00-.474-.464l-4.27-.882A.614.614 0 00.489 5.75l3.885.802L6.797 17.15a.613.613 0 00.598.477h12.07a.615.615 0 00.607-.53l.858-6.175a.613.613 0 00-.455-.678zm-8.14 3.91a.613.613 0 01-1.227 0v-2.696a.613.613 0 011.227 0v2.696zm2.625 0a.613.613 0 01-1.227 0v-1.88a.613.613 0 011.227 0v1.88zm2.625 0a.613.613 0 01-1.227 0v-1.226a.613.613 0 011.227 0v1.226z"/></g><path fill-rule="evenodd" clip-rule="evenodd" d="M16.268 4.568a2.996 2.996 0 00-1.693-.523c-.627 0-1.21.193-1.693.523-.28-.843-.492-1.752-.492-2.383C12.39.98 13.37 0 14.575 0s2.185.98 2.185 2.185c0 .631-.212 1.54-.492 2.383zm-4.722 2.274l.024.006v-.011l-.024.005zm4.972 1.217c-1.333-.33-2.766-.681-4.129-1.013a2.185 2.185 0 114.129 1.013zm4.436 1.103c-.866-.217-2.155-.538-3.618-.9a2.995 2.995 0 00.243-1.425c.87.18 1.762.45 2.308.765.596.344.969.928 1.067 1.56zM9.869 6.439c-.36-.086-.706-.167-1.03-.243a2.19 2.19 0 01-.376-2.667 2.188 2.188 0 013.147-.7c.098.738.338 1.599.61 2.353a3.01 3.01 0 00-.449.774c-.628.113-1.305.278-1.902.483zm10.124.075a3.43 3.43 0 01-.217.114c-.696-.295-1.587-.526-2.397-.672a3.01 3.01 0 00-.449-.774c.262-.727.494-1.553.599-2.273.095-.067.189-.128.278-.18a2.188 2.188 0 012.986.8 2.188 2.188 0 01-.8 2.985z"/><defs><clipPath id="ca"><path transform="translate(0 3.064)" d="M0 0h20.936v20.936H0z"/></clipPath></defs></symbol><symbol viewBox="0 0 344.96 344.96" id="check" xmlns="http://www.w3.org/2000/svg"><g data-name="Слой 2"><path class="dcls-1" d="M321.85 86.24l-40-23.11-23.1-40H212.5L172.48 0l-40 23.11H86.24l-23.11 40-40 23.1v46.21L0 172.48l23.11 40v46.21l40 23.11 23.11 40h46.21l40 23.1 40-23.11h46.21l23.11-40 40-23.11V212.5l23.11-40-23.11-40V86.24zM156.91 243.07a16.79 16.79 0 01-23.34 0l-50.45-50.44a16.19 16.19 0 010-22.89l13.35-13.35a16.19 16.19 0 0122.89 0l25.87 25.87 80.34-80.35a16.19 16.19 0 0122.89 0l13.35 13.35a16.19 16.19 0 010 22.89z" data-name="Capa 1"/></g></symbol><symbol viewBox="0 0 24 24" id="fb" xmlns="http://www.w3.org/2000/svg"><path d="M13.397 20.997v-8.196h2.765l.411-3.209h-3.176V7.548c0-.926.258-1.56 1.587-1.56h1.684v-2.86A22.108 22.108 0 0014.201 3c-2.444 0-4.122 1.492-4.122 4.231v2.355H7.332v3.21h2.753v8.201h3.312z"/></symbol><symbol viewBox="0 0 11 6" id="filter-arrow" xmlns="http://www.w3.org/2000/svg"><path d="M1 .771L5.457 5.23 9.914.77"/></symbol><symbol viewBox="0 0 16 16" id="insta-colored" xmlns="http://www.w3.org/2000/svg"><path d="M7.622 3.706a3.91 3.91 0 10-.001 7.82 3.91 3.91 0 000-7.82zm0 6.448a2.537 2.537 0 110-5.076 2.537 2.537 0 110 5.076z"/><path d="M10.76.048c-1.401-.066-4.874-.062-6.277 0C3.25.106 2.163.403 1.286 1.28-.18 2.746.008 4.72.008 7.616c0 2.964-.165 4.893 1.278 6.336 1.471 1.47 3.474 1.278 6.336 1.278 2.936 0 3.949.002 4.987-.4 1.412-.548 2.477-1.81 2.581-4.075.066-1.403.062-4.875 0-6.278-.126-2.675-1.561-4.297-4.43-4.43zm2.22 12.934c-.96.961-2.293.875-5.377.875-3.174 0-4.447.047-5.376-.884-1.07-1.065-.876-2.775-.876-5.367 0-3.508-.36-6.034 3.16-6.215.81-.028 1.047-.038 3.083-.038l.029.02c3.384 0 6.038-.355 6.197 3.165.037.803.045 1.044.045 3.077 0 3.138.059 4.419-.885 5.367z"/><path d="M11.686 4.465a.914.914 0 100-1.827.914.914 0 000 1.827z"/></symbol><symbol viewBox="0 0 24 24" id="instagram" xmlns="http://www.w3.org/2000/svg"><path d="M11.999 7.377a4.624 4.624 0 100 9.248 4.624 4.624 0 000-9.248zm0 7.627a3.004 3.004 0 110-6.008 3.004 3.004 0 010 6.008zm4.807-6.719a1.078 1.078 0 100-2.156 1.078 1.078 0 000 2.156z"/><path d="M20.533 6.11A4.605 4.605 0 0017.9 3.48a6.607 6.607 0 00-2.186-.42c-.963-.042-1.268-.054-3.71-.054s-2.755 0-3.71.054a6.554 6.554 0 00-2.184.42 4.6 4.6 0 00-2.633 2.63 6.585 6.585 0 00-.419 2.186c-.043.962-.056 1.267-.056 3.71 0 2.442 0 2.753.056 3.71.015.748.156 1.486.419 2.187a4.61 4.61 0 002.634 2.632 6.583 6.583 0 002.185.45c.963.042 1.268.055 3.71.055s2.755 0 3.71-.055a6.616 6.616 0 002.186-.42 4.613 4.613 0 002.633-2.632c.263-.7.404-1.438.419-2.186.043-.962.056-1.267.056-3.71s0-2.753-.056-3.71a6.583 6.583 0 00-.421-2.217zm-1.218 9.533a5.046 5.046 0 01-.311 1.688 2.987 2.987 0 01-1.712 1.71c-.535.2-1.1.305-1.67.312-.95.044-1.218.055-3.654.055-2.438 0-2.687 0-3.655-.055a4.961 4.961 0 01-1.67-.311 2.984 2.984 0 01-1.718-1.711 5.08 5.08 0 01-.311-1.67c-.043-.95-.053-1.217-.053-3.653 0-2.437 0-2.686.053-3.655a5.038 5.038 0 01.311-1.687c.305-.79.93-1.41 1.719-1.712a5.01 5.01 0 011.669-.311c.95-.043 1.218-.055 3.655-.055s2.687 0 3.654.055a4.96 4.96 0 011.67.31 2.99 2.99 0 011.712 1.713 5.06 5.06 0 01.311 1.669c.043.95.054 1.218.054 3.655 0 2.436 0 2.698-.043 3.654h-.011v-.001z"/></symbol><symbol viewBox="0 0 18 23" id="location" xmlns="http://www.w3.org/2000/svg"><path d="M8.687.506C4.317.659.685 4.069.265 8.422a8.83 8.83 0 00.176 2.797c.136.604.339 1.19.591 1.74.88 2.085 2.914 5.572 7.479 9.365a.76.76 0 00.974 0c4.565-3.789 6.6-7.276 7.484-9.369a8.424 8.424 0 00.65-2.016A8.773 8.773 0 008.687.506zm.311 13.135a4.262 4.262 0 110-8.524 4.262 4.262 0 010 8.524z"/></symbol><symbol viewBox="0 0 103 39" id="logo" xmlns="http://www.w3.org/2000/svg"><path d="M7.004 31.035v7.636H5.236v-3.13H1.767v3.13H0v-7.636h1.767v3.01h3.47v-3.01h1.767zm7.084 6h-3.545l-.677 1.636h-1.81l3.403-7.636h1.745l3.415 7.636h-1.855l-.676-1.636zm-.556-1.342l-1.211-2.924-1.211 2.924h2.422zm9.391-1.003c.465.138.821.363 1.069.676.247.312.37.698.37 1.156 0 .677-.258 1.204-.774 1.582-.509.378-1.24.567-2.193.567h-3.763v-7.636h3.556c.887 0 1.578.17 2.073.512.494.342.742.83.742 1.462a1.8 1.8 0 01-.284 1.004 1.97 1.97 0 01-.796.676zm-3.535-.492h1.647c.386 0 .677-.076.873-.229.196-.16.295-.392.295-.698 0-.298-.102-.527-.306-.687-.196-.16-.483-.24-.862-.24h-1.647v1.854zm1.942 3.164c.829 0 1.244-.327 1.244-.982 0-.633-.415-.949-1.244-.949h-1.942v1.931h1.942zm10.343-.109v1.418H25.76v-7.636h5.771v1.418h-4.014v1.658h3.545v1.375h-3.545v1.767h4.156zm5.017 1.549c-.778 0-1.483-.167-2.116-.502a3.888 3.888 0 01-1.484-1.407c-.356-.604-.534-1.284-.534-2.04s.178-1.433.534-2.03a3.783 3.783 0 011.484-1.406c.633-.342 1.342-.513 2.127-.513.662 0 1.258.116 1.79.349.538.233.988.567 1.352 1.004l-1.135 1.047c-.516-.596-1.156-.895-1.92-.895-.472 0-.894.106-1.265.317a2.21 2.21 0 00-.873.861c-.203.371-.305.793-.305 1.266s.102.895.305 1.265c.211.371.502.662.873.873.37.204.793.306 1.265.306.764 0 1.404-.302 1.92-.906l1.135 1.047a3.536 3.536 0 01-1.353 1.015 4.49 4.49 0 01-1.8.35zm14.398-7.767v7.636h-1.767v-3.13h-3.47v3.13h-1.767v-7.636h1.768v3.01h3.469v-3.01h1.767zm7.084 6h-3.545l-.677 1.636h-1.81l3.403-7.636h1.746l3.414 7.636H58.85l-.677-1.636zm-.556-1.342l-1.21-2.924-1.212 2.924h2.422zm11.531-1.003c.444.152.79.392 1.037.72.254.32.382.694.382 1.123 0 .465-.153.87-.459 1.21-.305.343-.72.605-1.243.786a5.094 5.094 0 01-1.702.273 6.452 6.452 0 01-1.571-.196 5.754 5.754 0 01-1.473-.6l.546-1.266c.334.204.702.36 1.102.47.407.101.803.152 1.189.152.523 0 .956-.095 1.298-.284.349-.189.523-.454.523-.796a.707.707 0 00-.36-.644c-.232-.145-.552-.218-.96-.218h-1.865v-1.33h1.735c.356 0 .632-.073.829-.219a.697.697 0 00.305-.6c0-.298-.145-.53-.436-.698-.284-.167-.651-.251-1.102-.251-.335 0-.68.047-1.036.142a3.944 3.944 0 00-1.015.404l-.534-1.375a5.649 5.649 0 012.618-.622c.596 0 1.145.087 1.647.262.502.175.902.429 1.2.764a1.7 1.7 0 01.447 1.167c0 .364-.098.687-.294.97a1.897 1.897 0 01-.808.655zm7.989 2.345H73.59l-.676 1.636h-1.811l3.404-7.636h1.745l3.415 7.636h-1.855l-.676-1.636zm-.557-1.342l-1.21-2.924-1.212 2.924h2.422zm7.057-.098h-1.222v3.076h-1.757v-7.636h1.757v3.087h1.265l2.008-3.087h1.865l-2.498 3.687 2.575 3.95H85.62l-1.985-3.077z"/><path d="M93.478 37.035h-3.545l-.677 1.636h-1.81l3.403-7.636h1.746l3.414 7.636h-1.854l-.677-1.636zm-.556-1.342l-1.211-2.924-1.21 2.924h2.42zm8.442-1.003c.443.152.789.392 1.036.72.255.32.382.694.382 1.123 0 .465-.153.87-.458 1.21-.306.343-.72.605-1.244.786a5.091 5.091 0 01-1.702.273 6.451 6.451 0 01-1.57-.196 5.755 5.755 0 01-1.473-.6l.545-1.266c.335.204.702.36 1.102.47.407.101.804.152 1.189.152.524 0 .956-.095 1.298-.284.349-.189.524-.454.524-.796a.707.707 0 00-.36-.644c-.233-.145-.553-.218-.96-.218h-1.866v-1.33h1.735c.356 0 .633-.073.829-.219a.697.697 0 00.306-.6c0-.298-.146-.53-.437-.698-.283-.167-.65-.251-1.102-.251-.334 0-.68.047-1.036.142a3.943 3.943 0 00-1.015.404l-.534-1.375a5.649 5.649 0 012.618-.622c.596 0 1.145.087 1.647.262.502.175.902.429 1.2.764.299.334.448.723.448 1.167 0 .364-.099.687-.295.97a1.894 1.894 0 01-.807.655z"/><path fill-rule="evenodd" clip-rule="evenodd" d="M51.26 0v24.698h50.34l.25-1.124L51.259 0zm1.179 5.839h2.709V3.113l15.773 7.35V14.9l-13.304 6.272H52.44V5.839zm5.9 17.68v-1.383l13.303-6.271h4.095v5.308H74.8v2.346H58.34zm19.455 0v-2.346h-.877v-5.308h.762v-2.253l12.244 5.705v4.202H77.794z"/><path fill-rule="evenodd" clip-rule="evenodd" d="M51.26 0v24.698H.916l-.249-1.124L51.259 0zm-1.18 5.839h-2.71V3.113l-15.772 7.35V14.9L44.9 21.173h5.179V5.839zm-5.9 17.68v-1.383l-13.304-6.271h-4.095v5.308h.939v2.346h16.46zm-19.456 0v-2.346h.878v-5.308h-.762v-2.253l-12.245 5.705v4.202h12.13z"/></symbol><symbol viewBox="0 0 16 16" id="telegram" xmlns="http://www.w3.org/2000/svg"><path d="M14.629 3.698l-2.012 9.618c-.152.679-.548.848-1.11.528l-3.066-2.29-1.48 1.442c-.163.166-.3.305-.616.305l.22-3.165 5.683-5.204c.247-.223-.054-.347-.384-.123L4.839 9.29l-3.024-.959c-.658-.208-.67-.667.137-.986L13.78 2.727c.548-.208 1.027.124.849.971z"/></symbol><symbol viewBox="0 0 16 16" id="viber" xmlns="http://www.w3.org/2000/svg"><path d="M8 1.335c-1.071.013-3.374.19-4.662 1.37-.958.948-1.292 2.35-1.331 4.084-.033 1.728-.072 4.973 3.058 5.856v1.346s-.02.538.337.648c.438.14.688-.275 1.105-.72l.778-.879c2.142.178 3.782-.232 3.97-.293.435-.139 2.883-.451 3.283-3.696.41-3.351-.2-5.463-1.301-6.418h-.007c-.332-.306-1.668-1.279-4.652-1.29 0 0-.222-.014-.578-.008zm.037.942a7.02 7.02 0 01.488.011c2.527.007 3.732.767 4.017 1.023.927.794 1.405 2.697 1.055 5.495-.332 2.713-2.317 2.885-2.685 3.002-.156.05-1.6.406-3.42.289 0 0-1.356 1.634-1.78 2.055-.067.074-.146.095-.196.085-.071-.018-.093-.107-.089-.229l.013-2.233c-2.655-.733-2.498-3.5-2.47-4.946.033-1.446.304-2.628 1.113-3.43 1.088-.982 3.043-1.115 3.953-1.122zm.2 1.446a.166.166 0 100 .332 3.136 3.136 0 012.242.883c.606.588.9 1.378.912 2.411 0 .092.074.167.167.167V7.51a.167.167 0 00.168-.165 3.588 3.588 0 00-1.009-2.646c-.66-.645-1.496-.977-2.48-.977zm-2.198.382a.523.523 0 00-.342.067H5.69a2.61 2.61 0 00-.637.523 1.003 1.003 0 00-.256.525.71.71 0 00.026.302l.01.006c.172.504.396.988.67 1.444a8.48 8.48 0 001.29 1.762l.015.022.024.017.015.018.017.015c.532.505 1.127.94 1.769 1.295.734.4 1.18.588 1.447.667v.004c.078.024.15.034.221.034.228-.016.444-.109.613-.262a2.53 2.53 0 00.517-.638v-.004c.128-.241.085-.469-.1-.623-.37-.323-.77-.61-1.195-.857-.285-.155-.574-.061-.69.095l-.25.315c-.129.156-.361.134-.361.134l-.007.004C7.093 8.527 6.63 6.772 6.63 6.772s-.022-.239.139-.36l.312-.252c.15-.122.254-.41.094-.695a7.498 7.498 0 00-.856-1.194.475.475 0 00-.28-.167zm2.486.495c-.221 0-.221.334.003.334A2.098 2.098 0 0110 5.572 1.94 1.94 0 0110.5 7a.168.168 0 00.167.165l.007.009a.169.169 0 00.167-.167c.015-.662-.191-1.218-.595-1.663C9.84 4.9 9.273 4.65 8.549 4.6h-.024zm.274.898c-.228-.006-.236.335-.01.341.55.029.816.306.851.877a.166.166 0 00.165.163h.007a.168.168 0 00.16-.178c-.039-.744-.445-1.164-1.166-1.202H8.8z"/></symbol><symbol viewBox="0 0 24 24" id="vk" xmlns="http://www.w3.org/2000/svg"><path d="M21.579 6.855c.14-.465 0-.806-.662-.806h-2.193c-.558 0-.813.295-.953.619 0 0-1.115 2.719-2.695 4.482-.51.513-.743.675-1.021.675-.139 0-.341-.162-.341-.627V6.855c0-.558-.161-.806-.626-.806H9.642c-.348 0-.558.258-.558.504 0 .528.79.65.871 2.138v3.228c0 .707-.127.836-.407.836-.743 0-2.551-2.73-3.624-5.853-.209-.607-.42-.852-.98-.852H2.752c-.627 0-.752.295-.752.619 0 .582.743 3.462 3.461 7.27 1.812 2.602 4.363 4.012 6.687 4.012 1.393 0 1.565-.313 1.565-.853v-1.966c0-.626.133-.752.574-.752.324 0 .882.164 2.183 1.417 1.486 1.486 1.732 2.153 2.567 2.153h2.192c.626 0 .939-.313.759-.931-.197-.615-.907-1.51-1.849-2.57-.512-.603-1.277-1.253-1.51-1.578-.325-.42-.231-.604 0-.976.001 0 2.672-3.761 2.95-5.04z"/></symbol><symbol viewBox="0 0 16 16" id="whatsapp" xmlns="http://www.w3.org/2000/svg"><path d="M11.116 9.084l-.006.048c-1.396-.696-1.542-.789-1.722-.518-.125.187-.49.612-.6.738-.11.123-.221.133-.41.047-.19-.095-.802-.295-1.526-.943a5.76 5.76 0 01-1.054-1.314c-.186-.321.204-.367.558-1.037.063-.134.031-.239-.016-.333-.048-.095-.427-1.029-.585-1.4-.153-.372-.31-.325-.427-.325-.366-.031-.633-.026-.869.219-1.024 1.126-.766 2.288.11 3.524 1.724 2.255 2.642 2.67 4.32 3.247.454.144.868.123 1.195.076.364-.057 1.121-.457 1.28-.905.161-.448.161-.819.114-.905-.047-.085-.172-.133-.362-.219z"/><path d="M13.029 2.19C8.147-2.53.067.894.064 7.551c0 1.331.349 2.629 1.013 3.775L0 15.238l4.022-1.048c5.02 2.71 11.214-.89 11.216-6.635a7.488 7.488 0 00-2.219-5.34l.01-.025zm.94 5.344c-.003 4.847-5.323 7.873-9.53 5.4l-.23-.136-2.38.619.638-2.315-.152-.238c-2.618-4.168.39-9.615 5.35-9.615 1.685 0 3.266.657 4.458 1.847a6.215 6.215 0 011.847 4.438z"/></symbol><symbol viewBox="0 0 200 32" id="work" xmlns="http://www.w3.org/2000/svg"><path d="M0 4a4 4 0 014-4h195.056l-19.187 16 19.187 16H4a4 4 0 01-4-4V4z"/><path d="M16.348 11.07c1.27 0 2.268.303 2.996.91.728.606 1.092 1.441 1.092 2.505 0 1.064-.364 1.9-1.092 2.506-.728.607-1.727.91-2.996.91h-2.422v2.968h-1.4v-9.8h3.822zm-.042 5.613c.887 0 1.563-.186 2.03-.56.467-.383.7-.929.7-1.638 0-.71-.233-1.25-.7-1.624-.467-.383-1.143-.574-2.03-.574h-2.38v4.396h2.38zm8.431-3.304c1.027 0 1.81.252 2.352.756.55.504.826 1.255.826 2.254v4.48h-1.274v-.98a2.161 2.161 0 01-.966.798c-.41.177-.9.266-1.47.266-.83 0-1.498-.2-2.002-.602-.495-.401-.742-.928-.742-1.582 0-.653.238-1.176.714-1.568.476-.401 1.232-.602 2.268-.602h2.128v-.266c0-.578-.168-1.022-.504-1.33-.336-.308-.83-.462-1.484-.462-.439 0-.868.075-1.288.224-.42.14-.775.332-1.064.574l-.56-1.008a3.97 3.97 0 011.372-.7 5.593 5.593 0 011.694-.252zm-.308 6.538c.513 0 .957-.112 1.33-.336a2 2 0 00.812-.98v-1.036H24.5c-1.139 0-1.708.383-1.708 1.148 0 .373.145.668.434.882.29.215.69.322 1.204.322zm9.686-6.216c.69 0 1.307.154 1.848.462.541.308.962.737 1.26 1.288.308.541.462 1.162.462 1.862 0 .719-.163 1.358-.49 1.918-.317.55-.77.98-1.358 1.288-.579.308-1.241.462-1.988.462-1.26 0-2.235-.43-2.926-1.288-.681-.868-1.022-2.086-1.022-3.654 0-1.521.313-2.711.938-3.57.626-.868 1.582-1.442 2.87-1.722l3.388-.756.196 1.232-3.122.672c-.97.215-1.694.579-2.17 1.092-.476.514-.746 1.25-.812 2.212a3.266 3.266 0 011.232-1.106 3.625 3.625 0 011.694-.392zm-.238 6.16a2.43 2.43 0 001.26-.322c.373-.215.663-.509.868-.882a2.71 2.71 0 00.308-1.302c0-.737-.224-1.33-.672-1.778-.448-.448-1.036-.672-1.764-.672s-1.32.224-1.778.672c-.448.448-.672 1.04-.672 1.778 0 .485.103.92.308 1.302.215.373.509.668.882.882a2.48 2.48 0 001.26.322zm8.906 1.092c-.738 0-1.4-.163-1.988-.49a3.618 3.618 0 01-1.386-1.344c-.327-.578-.49-1.232-.49-1.96s.163-1.376.49-1.946a3.491 3.491 0 011.386-1.344c.588-.326 1.25-.49 1.988-.49.737 0 1.395.164 1.974.49a3.397 3.397 0 011.372 1.344c.336.57.504 1.218.504 1.946s-.168 1.382-.504 1.96a3.517 3.517 0 01-1.372 1.344c-.579.327-1.237.49-1.974.49zm0-1.176c.476 0 .9-.107 1.274-.322.382-.224.681-.532.896-.924.214-.401.322-.858.322-1.372 0-.513-.108-.966-.322-1.358a2.25 2.25 0 00-.896-.924 2.51 2.51 0 00-1.274-.322c-.476 0-.906.107-1.288.322a2.373 2.373 0 00-.896.924c-.215.392-.322.845-.322 1.358 0 .514.107.97.322 1.372.224.392.522.7.896.924.382.215.812.322 1.288.322zm11.047-5.152h-2.716v6.244H49.77v-6.244h-2.716V13.45h6.776v1.176zm4.02-1.246c1.027 0 1.811.252 2.352.756.551.504.826 1.255.826 2.254v4.48h-1.274v-.98a2.161 2.161 0 01-.966.798c-.41.177-.9.266-1.47.266-.83 0-1.498-.2-2.002-.602-.494-.401-.742-.928-.742-1.582 0-.653.238-1.176.714-1.568.476-.401 1.232-.602 2.268-.602h2.128v-.266c0-.578-.168-1.022-.504-1.33-.336-.308-.83-.462-1.484-.462a3.82 3.82 0 00-1.288.224c-.42.14-.774.332-1.064.574l-.56-1.008c.383-.308.84-.541 1.372-.7a5.593 5.593 0 011.694-.252zm-.308 6.538c.514 0 .957-.112 1.33-.336a2 2 0 00.812-.98v-1.036h-2.072c-1.138 0-1.708.383-1.708 1.148 0 .373.145.668.434.882.29.215.691.322 1.204.322zm12.612-2.716c0 .103-.009.238-.028.406h-6.02c.085.654.37 1.18.855 1.582.494.392 1.106.588 1.834.588.886 0 1.6-.299 2.141-.896l.742.868a3.24 3.24 0 01-1.26.896 4.307 4.307 0 01-1.666.308c-.783 0-1.479-.159-2.085-.476a3.538 3.538 0 01-1.415-1.358c-.326-.578-.49-1.232-.49-1.96 0-.718.16-1.367.477-1.946a3.475 3.475 0 011.33-1.344 3.785 3.785 0 011.918-.49c.709 0 1.339.164 1.89.49.56.318.994.765 1.302 1.344.317.579.475 1.242.475 1.988zm-3.667-2.688c-.644 0-1.186.196-1.624.588-.43.392-.682.905-.757 1.54h4.76c-.074-.625-.33-1.134-.77-1.526-.429-.401-.966-.602-1.61-.602zm14.306-1.064v7.42h-1.218v-5.418l-2.772 4.578h-.587l-2.744-4.592v5.432H72.24v-7.42h1.386l2.911 5.012 2.996-5.012h1.26zm9.61 7.504c-.756 0-1.433-.163-2.03-.49a3.618 3.618 0 01-1.386-1.344c-.336-.578-.504-1.232-.504-1.96s.168-1.376.504-1.946a3.491 3.491 0 011.386-1.344c.597-.326 1.274-.49 2.03-.49.672 0 1.27.136 1.792.406.532.27.943.663 1.232 1.176l-1.022.658a2.284 2.284 0 00-.868-.798 2.476 2.476 0 00-1.148-.266c-.485 0-.924.107-1.316.322a2.343 2.343 0 00-.91.924c-.215.392-.322.845-.322 1.358 0 .523.108.985.322 1.386.224.392.528.695.91.91.392.215.83.322 1.316.322.42 0 .803-.088 1.148-.266.345-.177.635-.443.868-.798l1.022.644c-.29.514-.7.91-1.232 1.19-.522.27-1.12.406-1.792.406zm14.782-1.302v1.218h-7.042v-.952l3.99-3.85c.485-.466.812-.868.98-1.204a2.35 2.35 0 00.252-1.036c0-.513-.182-.91-.546-1.19-.355-.29-.868-.434-1.54-.434-1.083 0-1.918.355-2.506 1.064l-.952-.826c.383-.466.882-.83 1.498-1.092.625-.261 1.321-.392 2.086-.392 1.027 0 1.843.247 2.45.742.607.486.91 1.148.91 1.988 0 .523-.112 1.018-.336 1.484-.224.467-.649.999-1.274 1.596l-2.996 2.884h5.026zm5.114 1.33c-.775 0-1.465-.196-2.072-.588-.597-.401-1.069-.98-1.414-1.736s-.518-1.652-.518-2.688c0-1.036.173-1.932.518-2.688.345-.756.817-1.33 1.414-1.722.607-.401 1.297-.602 2.072-.602.765 0 1.447.2 2.044.602.607.392 1.083.966 1.428 1.722s.518 1.652.518 2.688c0 1.036-.173 1.932-.518 2.688-.345.756-.821 1.335-1.428 1.736-.597.392-1.279.588-2.044.588zm0-1.246c.784 0 1.409-.322 1.876-.966.476-.644.714-1.577.714-2.8 0-1.223-.238-2.156-.714-2.8-.467-.644-1.092-.966-1.876-.966-.793 0-1.428.322-1.904.966-.467.644-.7 1.577-.7 2.8 0 1.223.233 2.156.7 2.8.476.644 1.111.966 1.904.966zm8.331-8.666v9.8h-1.386v-8.582h-2.212V11.07h3.598zm9.032 8.582v1.218h-7.042v-.952l3.99-3.85c.485-.466.812-.868.98-1.204a2.35 2.35 0 00.252-1.036c0-.513-.182-.91-.546-1.19-.355-.29-.868-.434-1.54-.434-1.083 0-1.918.355-2.506 1.064l-.952-.826c.382-.466.882-.83 1.498-1.092.625-.261 1.32-.392 2.086-.392 1.026 0 1.843.247 2.45.742.606.486.91 1.148.91 1.988 0 .523-.112 1.018-.336 1.484-.224.467-.649.999-1.274 1.596l-2.996 2.884h5.026zm11-5.026h-4.116v6.244h-1.344v-7.42h5.46v1.176zm4.226 6.328c-.737 0-1.4-.163-1.988-.49a3.618 3.618 0 01-1.386-1.344c-.326-.578-.49-1.232-.49-1.96s.164-1.376.49-1.946a3.491 3.491 0 011.386-1.344c.588-.326 1.251-.49 1.988-.49.738 0 1.396.164 1.974.49a3.393 3.393 0 011.372 1.344c.336.57.504 1.218.504 1.946s-.168 1.382-.504 1.96a3.513 3.513 0 01-1.372 1.344c-.578.327-1.236.49-1.974.49zm0-1.176c.476 0 .901-.107 1.274-.322.383-.224.682-.532.896-.924a2.86 2.86 0 00.322-1.372c0-.513-.107-.966-.322-1.358a2.245 2.245 0 00-.896-.924 2.51 2.51 0 00-1.274-.322c-.476 0-.905.107-1.288.322a2.375 2.375 0 00-.896.924c-.214.392-.322.845-.322 1.358 0 .514.108.97.322 1.372.224.392.523.7.896.924.383.215.812.322 1.288.322zm13.282-.084v2.898h-1.26V20.87h-6.202v1.722h-1.274v-2.898h.392c.476-.028.803-.364.98-1.008.178-.644.299-1.554.364-2.73l.112-2.506h5.754v6.244h1.134zm-5.768-3.64c-.037.933-.116 1.708-.238 2.324-.112.607-.322 1.046-.63 1.316h4.158v-5.068h-3.22l-.07 1.428zm10.165-2.674c1.027 0 1.811.252 2.352.756.551.504.826 1.255.826 2.254v4.48h-1.274v-.98a2.161 2.161 0 01-.966.798c-.411.177-.901.266-1.47.266-.831 0-1.498-.2-2.002-.602-.495-.401-.742-.928-.742-1.582 0-.653.238-1.176.714-1.568.476-.401 1.232-.602 2.268-.602h2.128v-.266c0-.578-.168-1.022-.504-1.33-.336-.308-.831-.462-1.484-.462-.439 0-.868.075-1.288.224-.42.14-.775.332-1.064.574l-.56-1.008c.383-.308.84-.541 1.372-.7a5.595 5.595 0 011.694-.252zm-.308 6.538c.513 0 .957-.112 1.33-.336a2 2 0 00.812-.98v-1.036h-2.072c-1.139 0-1.708.383-1.708 1.148 0 .373.145.668.434.882.289.215.691.322 1.204.322z"/></symbol><symbol viewBox="0 0 16 11" id="yt-colored" xmlns="http://www.w3.org/2000/svg"><path d="M15.282 1.645l.019.125A1.932 1.932 0 0013.988.429l-.013-.003C12.787.103 8.006.103 8.006.103S3.238.097 2.038.426a1.933 1.933 0 00-1.322 1.33l-.004.014C.27 4.088.265 6.873.732 9.355l-.02-.126a1.932 1.932 0 001.313 1.341l.014.003c1.186.324 5.968.324 5.968.324s4.768 0 5.968-.324a1.932 1.932 0 001.324-1.33l.003-.014c.202-1.078.317-2.318.317-3.586v-.286c0-1.268-.115-2.509-.337-3.712zm-8.8 6.173v-4.63l3.978 2.318-3.98 2.312z"/></symbol></svg>