<svg width="16" height="16" viewBox="0 0 16 16" fill="none" xmlns="http://www.w3.org/2000/svg">
<path d="M7.62176 3.7063C5.46112 3.7063 3.71191 5.45741 3.71191 7.61614C3.71191 9.77678 5.46303 11.526 7.62176 11.526C9.78239 11.526 11.5316 9.77487 11.5316 7.61614C11.5316 5.45551 9.78049 3.7063 7.62176 3.7063V3.7063ZM7.62176 10.1539C6.21922 10.1539 5.08398 9.01805 5.08398 7.61614C5.08398 6.21424 6.21985 5.07836 7.62176 5.07836C9.02366 5.07836 10.1595 6.21424 10.1595 7.61614C10.1602 9.01805 9.0243 10.1539 7.62176 10.1539V10.1539Z" fill="#D21FFF"/>
<path d="M10.7608 0.0478646C9.35887 -0.0175323 5.88649 -0.0143577 4.48332 0.0478646C3.2503 0.105642 2.16268 0.40342 1.28586 1.28025C-0.179538 2.74564 0.00776334 4.72025 0.00776334 7.61612C0.00776334 10.5799 -0.157316 12.5088 1.28586 13.952C2.75697 15.4225 4.76014 15.2301 7.62173 15.2301C10.5576 15.2301 11.5709 15.232 12.609 14.8301C14.0205 14.2822 15.0859 13.0206 15.19 10.7545C15.256 9.35199 15.2522 5.88025 15.19 4.47707C15.0643 1.80215 13.6287 0.179928 10.7608 0.0478646V0.0478646ZM12.9798 12.9825C12.0192 13.9431 10.6865 13.8574 7.60332 13.8574C4.42872 13.8574 3.1557 13.9044 2.22681 12.9729C1.15697 11.9082 1.35062 10.1983 1.35062 7.60596C1.35062 4.09802 0.990621 1.57167 4.51126 1.39136C5.32014 1.36279 5.55824 1.35326 7.59443 1.35326L7.623 1.37231C11.0065 1.37231 13.6611 1.01802 13.8205 4.53802C13.8567 5.3412 13.8649 5.58247 13.8649 7.61548C13.8643 10.7533 13.924 12.0339 12.9798 12.9825V12.9825Z" fill="#D21FFF"/>
<path d="M11.6861 4.46548C12.1907 4.46548 12.5998 4.05643 12.5998 3.55183C12.5998 3.04724 12.1907 2.63818 11.6861 2.63818C11.1815 2.63818 10.7725 3.04724 10.7725 3.55183C10.7725 4.05643 11.1815 4.46548 11.6861 4.46548Z" fill="#D21FFF"/>
</svg>
