<svg width="18" height="23" viewBox="0 0 18 23" fill="none" xmlns="http://www.w3.org/2000/svg">
<path d="M8.68697 0.505599C4.31606 0.658965 0.684904 4.06909 0.265405 8.42196C0.179701 9.29253 0.229319 10.136 0.382685 10.9435C0.382685 10.9435 0.396217 11.0382 0.441324 11.2186C0.576647 11.8231 0.77963 12.4095 1.03223 12.9598C1.91183 15.0437 3.94617 18.5305 8.51105 22.3241C8.79072 22.5586 9.20119 22.5586 9.48537 22.3241C14.0502 18.5351 16.0846 15.0482 16.9687 12.9553C17.2258 12.4049 17.4243 11.8231 17.5596 11.2141C17.6002 11.0382 17.6182 10.939 17.6182 10.939C17.722 10.3977 17.7761 9.84284 17.7761 9.27449C17.7761 4.32169 13.6759 0.32968 8.68697 0.505599ZM8.99821 13.6409C6.6436 13.6409 4.73555 11.7328 4.73555 9.37824C4.73555 7.02363 6.6436 5.11558 8.99821 5.11558C11.3528 5.11558 13.2609 7.02363 13.2609 9.37824C13.2609 11.7328 11.3528 13.6409 8.99821 13.6409Z" fill="#2C3440"/>
</svg>
