<svg width="103" height="39" viewBox="0 0 103 39" fill="none" xmlns="http://www.w3.org/2000/svg">
<path d="M7.00373 31.0347V38.6712H5.23643V35.5402H1.7673V38.6712H0V31.0347H1.7673V34.0457H5.23643V31.0347H7.00373Z" fill="black"/>
<path d="M14.088 37.0348H10.5425L9.86613 38.6712H8.05519L11.4589 31.0347H13.2044L16.6189 38.6712H14.7644L14.088 37.0348ZM13.5316 35.693L12.3207 32.7693L11.1098 35.693H13.5316Z" fill="black"/>
<path d="M22.9226 34.6893C23.3881 34.8275 23.7444 35.053 23.9917 35.3657C24.239 35.6784 24.3626 36.0639 24.3626 36.5221C24.3626 37.1985 24.1044 37.7257 23.5881 38.1039C23.079 38.4821 22.3481 38.6712 21.3953 38.6712H17.6316V31.0347H21.188C22.0753 31.0347 22.7662 31.2056 23.2608 31.5475C23.7553 31.8893 24.0026 32.3766 24.0026 33.0093C24.0026 33.3875 23.9081 33.722 23.719 34.013C23.5299 34.2966 23.2644 34.5221 22.9226 34.6893ZM19.388 34.1984H21.0353C21.4208 34.1984 21.7117 34.122 21.9081 33.9693C22.1044 33.8093 22.2026 33.5766 22.2026 33.2711C22.2026 32.9729 22.1008 32.7438 21.8971 32.5838C21.7008 32.4238 21.4135 32.3438 21.0353 32.3438H19.388V34.1984ZM21.3299 37.3621C22.159 37.3621 22.5735 37.0348 22.5735 36.3803C22.5735 35.7475 22.159 35.4312 21.3299 35.4312H19.388V37.3621H21.3299Z" fill="black"/>
<path d="M31.6731 37.253V38.6712H25.7603V31.0347H31.5313V32.4529H27.5167V34.1111H31.0622V35.4857H27.5167V37.253H31.6731Z" fill="black"/>
<path d="M36.6902 38.8021C35.912 38.8021 35.2066 38.6348 34.5739 38.3003C33.9484 37.9585 33.4538 37.4894 33.0902 36.893C32.7338 36.2893 32.5556 35.6093 32.5556 34.853C32.5556 34.0966 32.7338 33.4202 33.0902 32.8238C33.4538 32.2202 33.9484 31.7511 34.5739 31.4166C35.2066 31.0747 35.9157 30.9038 36.7012 30.9038C37.363 30.9038 37.9593 31.0202 38.4903 31.2529C39.0285 31.4856 39.4794 31.8202 39.843 32.2566L38.7085 33.3039C38.1921 32.7075 37.5521 32.4093 36.7884 32.4093C36.3157 32.4093 35.8939 32.5148 35.523 32.7257C35.152 32.9293 34.8611 33.2166 34.6502 33.5875C34.4466 33.9584 34.3448 34.3802 34.3448 34.853C34.3448 35.3257 34.4466 35.7475 34.6502 36.1184C34.8611 36.4894 35.152 36.7803 35.523 36.9912C35.8939 37.1948 36.3157 37.2966 36.7884 37.2966C37.5521 37.2966 38.1921 36.9948 38.7085 36.3912L39.843 37.4385C39.4794 37.8821 39.0285 38.2203 38.4903 38.453C37.9521 38.6857 37.3521 38.8021 36.6902 38.8021Z" fill="black"/>
<path d="M51.0881 31.0347V38.6712H49.3208V35.5402H45.8517V38.6712H44.0844V31.0347H45.8517V34.0457H49.3208V31.0347H51.0881Z" fill="black"/>
<path d="M58.1724 37.0348H54.6269L53.9505 38.6712H52.1396L55.5433 31.0347H57.2888L60.7033 38.6712H58.8488L58.1724 37.0348ZM57.616 35.693L56.4051 32.7693L55.1942 35.693H57.616Z" fill="black"/>
<path d="M69.1474 34.6893C69.5911 34.8421 69.9365 35.0821 70.1838 35.4093C70.4384 35.7293 70.5656 36.1039 70.5656 36.533C70.5656 36.9984 70.4129 37.4021 70.1075 37.7439C69.802 38.0857 69.3874 38.3476 68.8638 38.5294C68.3474 38.7112 67.7801 38.8021 67.162 38.8021C66.6383 38.8021 66.1147 38.7367 65.591 38.6057C65.0747 38.4748 64.5837 38.2748 64.1183 38.0057L64.6637 36.7403C64.9983 36.9439 65.3656 37.1003 65.7656 37.2094C66.1729 37.3112 66.5692 37.3621 66.9547 37.3621C67.4783 37.3621 67.9111 37.2675 68.2529 37.0785C68.602 36.8894 68.7765 36.6239 68.7765 36.2821C68.7765 35.9984 68.6565 35.7839 68.4165 35.6384C68.1838 35.493 67.8638 35.4202 67.4565 35.4202H65.591V34.0893H67.3256C67.682 34.0893 67.9583 34.0166 68.1547 33.8711C68.3583 33.7257 68.4602 33.5257 68.4602 33.2711C68.4602 32.9729 68.3147 32.7402 68.0238 32.5729C67.7401 32.4057 67.3729 32.322 66.922 32.322C66.5874 32.322 66.2419 32.3693 65.8856 32.4638C65.5292 32.5511 65.191 32.6857 64.871 32.8675L64.3365 31.4929C65.1437 31.0784 66.0165 30.8711 66.9547 30.8711C67.5511 30.8711 68.1002 30.9584 68.602 31.1329C69.1038 31.3075 69.5038 31.562 69.802 31.8966C70.1002 32.2311 70.2493 32.6202 70.2493 33.0639C70.2493 33.4275 70.1511 33.7511 69.9547 34.0348C69.7584 34.3184 69.4893 34.5366 69.1474 34.6893Z" fill="black"/>
<path d="M77.1357 37.0348H73.5902L72.9139 38.6712H71.1029L74.5066 31.0347H76.2521L79.6667 38.6712H77.8121L77.1357 37.0348ZM76.5794 35.693L75.3684 32.7693L74.1575 35.693H76.5794Z" fill="black"/>
<path d="M83.6358 35.5948H82.4139V38.6712H80.6575V31.0347H82.4139V34.122H83.6794L85.6867 31.0347H87.5522L85.054 34.7221L87.6285 38.6712H85.6212L83.6358 35.5948Z" fill="black"/>
<path d="M93.4783 37.0348H89.9328L89.2564 38.6712H87.4455L90.8492 31.0347H92.5946L96.0092 38.6712H94.1547L93.4783 37.0348ZM92.9219 35.693L91.711 32.7693L90.5001 35.693H92.9219Z" fill="black"/>
<path d="M101.364 34.6893C101.807 34.8421 102.153 35.0821 102.4 35.4093C102.655 35.7293 102.782 36.1039 102.782 36.533C102.782 36.9984 102.629 37.4021 102.324 37.7439C102.018 38.0857 101.604 38.3476 101.08 38.5294C100.564 38.7112 99.9965 38.8021 99.3783 38.8021C98.8547 38.8021 98.331 38.7367 97.8074 38.6057C97.291 38.4748 96.8001 38.2748 96.3346 38.0057L96.8801 36.7403C97.2146 36.9439 97.5819 37.1003 97.9819 37.2094C98.3892 37.3112 98.7856 37.3621 99.171 37.3621C99.6947 37.3621 100.127 37.2675 100.469 37.0785C100.818 36.8894 100.993 36.6239 100.993 36.2821C100.993 35.9984 100.873 35.7839 100.633 35.6384C100.4 35.493 100.08 35.4202 99.6728 35.4202H97.8074V34.0893H99.5419C99.8983 34.0893 100.175 34.0166 100.371 33.8711C100.575 33.7257 100.677 33.5257 100.677 33.2711C100.677 32.9729 100.531 32.7402 100.24 32.5729C99.9565 32.4057 99.5892 32.322 99.1383 32.322C98.8038 32.322 98.4583 32.3693 98.1019 32.4638C97.7455 32.5511 97.4074 32.6857 97.0874 32.8675L96.5528 31.4929C97.3601 31.0784 98.2328 30.8711 99.171 30.8711C99.7674 30.8711 100.316 30.9584 100.818 31.1329C101.32 31.3075 101.72 31.562 102.018 31.8966C102.317 32.2311 102.466 32.6202 102.466 33.0639C102.466 33.4275 102.367 33.7511 102.171 34.0348C101.975 34.3184 101.706 34.5366 101.364 34.6893Z" fill="black"/>
<path fill-rule="evenodd" clip-rule="evenodd" d="M51.2592 0V24.6983H101.601L101.851 23.574L51.2592 0ZM52.4387 5.83895H55.148V3.11335L70.9207 10.4629V14.9011L57.6174 21.1726H52.4387V5.83895ZM58.3392 23.5188V22.1363L71.6425 15.8648H75.7371V21.1726H74.7985V23.5188H58.3392ZM77.7944 23.5188V21.1726H76.9166V15.8648H77.6791V13.6121L89.9231 19.3175V23.5188H77.7944Z" fill="black"/>
<path fill-rule="evenodd" clip-rule="evenodd" d="M51.2594 0V24.6983H0.917062L0.667969 23.574L51.2594 0ZM50.0799 5.83895H47.3705V3.11335L31.5978 10.4629V14.9011L44.9011 21.1726H50.0799V5.83895ZM44.1793 23.5188V22.1363L30.876 15.8648H26.7815V21.1726H27.72V23.5188H44.1793ZM24.7242 23.5188V21.1726H25.602V15.8648H24.8395V13.6121L12.5954 19.3175V23.5188H24.7242Z" fill="black"/>
</svg>
