<svg width="16" height="16" viewBox="0 0 16 16" fill="none" xmlns="http://www.w3.org/2000/svg">
<path d="M11.1159 9.08425L11.1102 9.13187C9.71402 8.436 9.56799 8.3433 9.38767 8.61377C9.26259 8.80108 8.89814 9.22584 8.7883 9.35155C8.67719 9.47536 8.56672 9.48489 8.37814 9.39917C8.18767 9.30393 7.57624 9.10393 6.85243 8.45631C6.28862 7.95155 5.91021 7.3325 5.79846 7.14203C5.61243 6.82076 6.00164 6.77504 6.35592 6.10457C6.41941 5.97123 6.38703 5.86647 6.34005 5.77187C6.29243 5.67663 5.91338 4.7433 5.75465 4.37123C5.60227 4.00044 5.44545 4.04743 5.32799 4.04743C4.96227 4.01568 4.69497 4.02076 4.45941 4.26584C3.43465 5.39219 3.69306 6.55409 4.56989 7.78965C6.29306 10.0449 7.21116 10.4601 8.88989 11.0366C9.34322 11.1808 9.75656 11.1604 10.0835 11.1135C10.448 11.0557 11.2054 10.6557 11.3635 10.2081C11.5254 9.76044 11.5254 9.38901 11.4778 9.3033C11.4308 9.21758 11.3064 9.16996 11.1159 9.08425V9.08425Z" fill="#55CD6C"/>
<path d="M13.0286 2.19012C8.14667 -2.52925 0.0673016 0.893607 0.064127 7.55139C0.064127 8.88218 0.412698 10.18 1.07683 11.326L0 15.2384L4.02222 14.1895C9.04127 16.9006 15.2356 13.3006 15.2381 7.5552C15.2381 5.53869 14.4508 3.64091 13.019 2.21488L13.0286 2.19012ZM13.9695 7.53424C13.9657 12.3806 8.64571 15.4073 4.4381 12.9336L4.20952 12.7977L1.82857 13.4168L2.46667 11.1025L2.31492 10.8644C-0.303492 6.69615 2.70476 1.24853 7.66476 1.24853C9.34984 1.24853 10.9314 1.90567 12.1225 3.09615C13.313 4.27647 13.9695 5.85805 13.9695 7.53424V7.53424Z" fill="#55CD6C"/>
</svg>
