<svg width="200" height="32" viewBox="0 0 200 32" fill="none" xmlns="http://www.w3.org/2000/svg">
<path d="M0 4C0 1.79086 1.79086 0 4 0L199.056 0L179.869 16L199.056 32H4C1.79086 32 0 30.2091 0 28V4Z" fill="#35455C"/>
<path d="M16.348 11.0691C17.6173 11.0691 18.616 11.3725 19.344 11.9791C20.072 12.5858 20.436 13.4211 20.436 14.4851C20.436 15.5491 20.072 16.3845 19.344 16.9911C18.616 17.5978 17.6173 17.9011 16.348 17.9011H13.926V20.8691H12.526V11.0691H16.348ZM16.306 16.6831C17.1927 16.6831 17.8693 16.4965 18.336 16.1231C18.8027 15.7405 19.036 15.1945 19.036 14.4851C19.036 13.7758 18.8027 13.2345 18.336 12.8611C17.8693 12.4785 17.1927 12.2871 16.306 12.2871H13.926V16.6831H16.306ZM24.7371 13.3791C25.7637 13.3791 26.5477 13.6311 27.0891 14.1351C27.6397 14.6391 27.9151 15.3905 27.9151 16.3891V20.8691H26.6411V19.8891C26.4171 20.2345 26.0951 20.5005 25.6751 20.6871C25.2644 20.8645 24.7744 20.9531 24.2051 20.9531C23.3744 20.9531 22.7071 20.7525 22.2031 20.3511C21.7084 19.9498 21.4611 19.4225 21.4611 18.7691C21.4611 18.1158 21.6991 17.5931 22.1751 17.2011C22.6511 16.7998 23.4071 16.5991 24.4431 16.5991H26.5711V16.3331C26.5711 15.7545 26.4031 15.3111 26.0671 15.0031C25.7311 14.6951 25.2364 14.5411 24.5831 14.5411C24.1444 14.5411 23.7151 14.6158 23.2951 14.7651C22.8751 14.9051 22.5204 15.0965 22.2311 15.3391L21.6711 14.3311C22.0537 14.0231 22.5111 13.7898 23.0431 13.6311C23.5751 13.4631 24.1397 13.3791 24.7371 13.3791ZM24.4291 19.9171C24.9424 19.9171 25.3857 19.8051 25.7591 19.5811C26.1324 19.3478 26.4031 19.0211 26.5711 18.6011V17.5651H24.4991C23.3604 17.5651 22.7911 17.9478 22.7911 18.7131C22.7911 19.0865 22.9357 19.3805 23.2251 19.5951C23.5144 19.8098 23.9157 19.9171 24.4291 19.9171ZM34.1152 13.7011C34.8059 13.7011 35.4219 13.8551 35.9632 14.1631C36.5045 14.4711 36.9245 14.9005 37.2232 15.4511C37.5312 15.9925 37.6852 16.6131 37.6852 17.3131C37.6852 18.0318 37.5219 18.6711 37.1952 19.2311C36.8779 19.7818 36.4252 20.2111 35.8372 20.5191C35.2585 20.8271 34.5959 20.9811 33.8492 20.9811C32.5892 20.9811 31.6139 20.5518 30.9232 19.6931C30.2419 18.8251 29.9012 17.6071 29.9012 16.0391C29.9012 14.5178 30.2139 13.3278 30.8392 12.4691C31.4645 11.6011 32.4212 11.0271 33.7092 10.7471L37.0972 9.99114L37.2932 11.2231L34.1712 11.8951C33.2005 12.1098 32.4772 12.4738 32.0012 12.9871C31.5252 13.5005 31.2545 14.2378 31.1892 15.1991C31.5065 14.7231 31.9172 14.3545 32.4212 14.0931C32.9252 13.8318 33.4899 13.7011 34.1152 13.7011ZM33.8772 19.8611C34.3532 19.8611 34.7732 19.7538 35.1372 19.5391C35.5105 19.3245 35.7999 19.0305 36.0052 18.6571C36.2105 18.2745 36.3132 17.8405 36.3132 17.3551C36.3132 16.6178 36.0892 16.0251 35.6412 15.5771C35.1932 15.1291 34.6052 14.9051 33.8772 14.9051C33.1492 14.9051 32.5565 15.1291 32.0992 15.5771C31.6512 16.0251 31.4272 16.6178 31.4272 17.3551C31.4272 17.8405 31.5299 18.2745 31.7352 18.6571C31.9499 19.0305 32.2439 19.3245 32.6172 19.5391C32.9905 19.7538 33.4105 19.8611 33.8772 19.8611ZM42.7827 20.9531C42.0454 20.9531 41.3827 20.7898 40.7947 20.4631C40.2067 20.1365 39.7447 19.6885 39.4087 19.1191C39.0821 18.5405 38.9187 17.8871 38.9187 17.1591C38.9187 16.4311 39.0821 15.7825 39.4087 15.2131C39.7447 14.6345 40.2067 14.1865 40.7947 13.8691C41.3827 13.5425 42.0454 13.3791 42.7827 13.3791C43.5201 13.3791 44.1781 13.5425 44.7567 13.8691C45.3447 14.1865 45.8021 14.6345 46.1287 15.2131C46.4647 15.7825 46.6327 16.4311 46.6327 17.1591C46.6327 17.8871 46.4647 18.5405 46.1287 19.1191C45.8021 19.6885 45.3447 20.1365 44.7567 20.4631C44.1781 20.7898 43.5201 20.9531 42.7827 20.9531ZM42.7827 19.7771C43.2587 19.7771 43.6834 19.6698 44.0567 19.4551C44.4394 19.2311 44.7381 18.9231 44.9527 18.5311C45.1674 18.1298 45.2747 17.6725 45.2747 17.1591C45.2747 16.6458 45.1674 16.1931 44.9527 15.8011C44.7381 15.3998 44.4394 15.0918 44.0567 14.8771C43.6834 14.6625 43.2587 14.5551 42.7827 14.5551C42.3067 14.5551 41.8774 14.6625 41.4947 14.8771C41.1214 15.0918 40.8227 15.3998 40.5987 15.8011C40.3841 16.1931 40.2767 16.6458 40.2767 17.1591C40.2767 17.6725 40.3841 18.1298 40.5987 18.5311C40.8227 18.9231 41.1214 19.2311 41.4947 19.4551C41.8774 19.6698 42.3067 19.7771 42.7827 19.7771ZM53.83 14.6251H51.114V20.8691H49.77V14.6251H47.054V13.4491H53.83V14.6251ZM57.8503 13.3791C58.877 13.3791 59.661 13.6311 60.2023 14.1351C60.753 14.6391 61.0283 15.3905 61.0283 16.3891V20.8691H59.7543V19.8891C59.5303 20.2345 59.2083 20.5005 58.7883 20.6871C58.3777 20.8645 57.8877 20.9531 57.3183 20.9531C56.4877 20.9531 55.8203 20.7525 55.3163 20.3511C54.8217 19.9498 54.5743 19.4225 54.5743 18.7691C54.5743 18.1158 54.8123 17.5931 55.2883 17.2011C55.7643 16.7998 56.5203 16.5991 57.5563 16.5991H59.6843V16.3331C59.6843 15.7545 59.5163 15.3111 59.1803 15.0031C58.8443 14.6951 58.3497 14.5411 57.6963 14.5411C57.2577 14.5411 56.8283 14.6158 56.4083 14.7651C55.9883 14.9051 55.6337 15.0965 55.3443 15.3391L54.7843 14.3311C55.167 14.0231 55.6243 13.7898 56.1563 13.6311C56.6883 13.4631 57.253 13.3791 57.8503 13.3791ZM57.5423 19.9171C58.0557 19.9171 58.499 19.8051 58.8723 19.5811C59.2457 19.3478 59.5163 19.0211 59.6843 18.6011V17.5651H57.6123C56.4737 17.5651 55.9043 17.9478 55.9043 18.7131C55.9043 19.0865 56.049 19.3805 56.3383 19.5951C56.6277 19.8098 57.029 19.9171 57.5423 19.9171ZM70.1545 17.2011C70.1545 17.3038 70.1452 17.4391 70.1265 17.6071H64.1065C64.1905 18.2605 64.4752 18.7878 64.9605 19.1891C65.4552 19.5811 66.0665 19.7771 66.7945 19.7771C67.6812 19.7771 68.3952 19.4785 68.9365 18.8811L69.6785 19.7491C69.3425 20.1411 68.9225 20.4398 68.4185 20.6451C67.9238 20.8505 67.3685 20.9531 66.7525 20.9531C65.9685 20.9531 65.2732 20.7945 64.6665 20.4771C64.0598 20.1505 63.5885 19.6978 63.2525 19.1191C62.9258 18.5405 62.7625 17.8871 62.7625 17.1591C62.7625 16.4405 62.9212 15.7918 63.2385 15.2131C63.5652 14.6345 64.0085 14.1865 64.5685 13.8691C65.1378 13.5425 65.7772 13.3791 66.4865 13.3791C67.1958 13.3791 67.8258 13.5425 68.3765 13.8691C68.9365 14.1865 69.3705 14.6345 69.6785 15.2131C69.9958 15.7918 70.1545 16.4545 70.1545 17.2011ZM66.4865 14.5131C65.8425 14.5131 65.3012 14.7091 64.8625 15.1011C64.4332 15.4931 64.1812 16.0065 64.1065 16.6411H68.8665C68.7918 16.0158 68.5352 15.5071 68.0965 15.1151C67.6672 14.7138 67.1305 14.5131 66.4865 14.5131ZM80.7935 13.4491V20.8691H79.5755V15.4511L76.8035 20.0291H76.2155L73.4715 15.4371V20.8691H72.2395V13.4491H73.6255L76.5375 18.4611L79.5335 13.4491H80.7935ZM90.4032 20.9531C89.6472 20.9531 88.9705 20.7898 88.3732 20.4631C87.7852 20.1365 87.3232 19.6885 86.9872 19.1191C86.6512 18.5405 86.4832 17.8871 86.4832 17.1591C86.4832 16.4311 86.6512 15.7825 86.9872 15.2131C87.3232 14.6345 87.7852 14.1865 88.3732 13.8691C88.9705 13.5425 89.6472 13.3791 90.4032 13.3791C91.0752 13.3791 91.6725 13.5145 92.1952 13.7851C92.7272 14.0558 93.1379 14.4478 93.4272 14.9611L92.4052 15.6191C92.1719 15.2645 91.8825 14.9985 91.5372 14.8211C91.1919 14.6438 90.8092 14.5551 90.3892 14.5551C89.9039 14.5551 89.4652 14.6625 89.0732 14.8771C88.6905 15.0918 88.3872 15.3998 88.1632 15.8011C87.9485 16.1931 87.8412 16.6458 87.8412 17.1591C87.8412 17.6818 87.9485 18.1438 88.1632 18.5451C88.3872 18.9371 88.6905 19.2405 89.0732 19.4551C89.4652 19.6698 89.9039 19.7771 90.3892 19.7771C90.8092 19.7771 91.1919 19.6885 91.5372 19.5111C91.8825 19.3338 92.1719 19.0678 92.4052 18.7131L93.4272 19.3571C93.1379 19.8705 92.7272 20.2671 92.1952 20.5471C91.6725 20.8178 91.0752 20.9531 90.4032 20.9531ZM105.185 19.6511V20.8691H98.143V19.9171L102.133 16.0671C102.618 15.6005 102.945 15.1991 103.113 14.8631C103.281 14.5178 103.365 14.1725 103.365 13.8271C103.365 13.3138 103.183 12.9171 102.819 12.6371C102.464 12.3478 101.951 12.2031 101.279 12.2031C100.196 12.2031 99.361 12.5578 98.773 13.2671L97.821 12.4411C98.2037 11.9745 98.703 11.6105 99.319 11.3491C99.9443 11.0878 100.64 10.9571 101.405 10.9571C102.432 10.9571 103.248 11.2045 103.855 11.6991C104.462 12.1845 104.765 12.8471 104.765 13.6871C104.765 14.2098 104.653 14.7045 104.429 15.1711C104.205 15.6378 103.78 16.1698 103.155 16.7671L100.159 19.6511H105.185ZM110.299 20.9811C109.524 20.9811 108.834 20.7851 108.227 20.3931C107.63 19.9918 107.158 19.4131 106.813 18.6571C106.468 17.9011 106.295 17.0051 106.295 15.9691C106.295 14.9331 106.468 14.0371 106.813 13.2811C107.158 12.5251 107.63 11.9511 108.227 11.5591C108.834 11.1578 109.524 10.9571 110.299 10.9571C111.064 10.9571 111.746 11.1578 112.343 11.5591C112.95 11.9511 113.426 12.5251 113.771 13.2811C114.116 14.0371 114.289 14.9331 114.289 15.9691C114.289 17.0051 114.116 17.9011 113.771 18.6571C113.426 19.4131 112.95 19.9918 112.343 20.3931C111.746 20.7851 111.064 20.9811 110.299 20.9811ZM110.299 19.7351C111.083 19.7351 111.708 19.4131 112.175 18.7691C112.651 18.1251 112.889 17.1918 112.889 15.9691C112.889 14.7465 112.651 13.8131 112.175 13.1691C111.708 12.5251 111.083 12.2031 110.299 12.2031C109.506 12.2031 108.871 12.5251 108.395 13.1691C107.928 13.8131 107.695 14.7465 107.695 15.9691C107.695 17.1918 107.928 18.1251 108.395 18.7691C108.871 19.4131 109.506 19.7351 110.299 19.7351ZM118.63 11.0691V20.8691H117.244V12.2871H115.032V11.0691H118.63ZM127.662 19.6511V20.8691H120.62V19.9171L124.61 16.0671C125.095 15.6005 125.422 15.1991 125.59 14.8631C125.758 14.5178 125.842 14.1725 125.842 13.8271C125.842 13.3138 125.66 12.9171 125.296 12.6371C124.941 12.3478 124.428 12.2031 123.756 12.2031C122.673 12.2031 121.838 12.5578 121.25 13.2671L120.298 12.4411C120.68 11.9745 121.18 11.6105 121.796 11.3491C122.421 11.0878 123.116 10.9571 123.882 10.9571C124.908 10.9571 125.725 11.2045 126.332 11.6991C126.938 12.1845 127.242 12.8471 127.242 13.6871C127.242 14.2098 127.13 14.7045 126.906 15.1711C126.682 15.6378 126.257 16.1698 125.632 16.7671L122.636 19.6511H127.662ZM138.662 14.6251H134.546V20.8691H133.202V13.4491H138.662V14.6251ZM142.888 20.9531C142.151 20.9531 141.488 20.7898 140.9 20.4631C140.312 20.1365 139.85 19.6885 139.514 19.1191C139.188 18.5405 139.024 17.8871 139.024 17.1591C139.024 16.4311 139.188 15.7825 139.514 15.2131C139.85 14.6345 140.312 14.1865 140.9 13.8691C141.488 13.5425 142.151 13.3791 142.888 13.3791C143.626 13.3791 144.284 13.5425 144.862 13.8691C145.45 14.1865 145.908 14.6345 146.234 15.2131C146.57 15.7825 146.738 16.4311 146.738 17.1591C146.738 17.8871 146.57 18.5405 146.234 19.1191C145.908 19.6885 145.45 20.1365 144.862 20.4631C144.284 20.7898 143.626 20.9531 142.888 20.9531ZM142.888 19.7771C143.364 19.7771 143.789 19.6698 144.162 19.4551C144.545 19.2311 144.844 18.9231 145.058 18.5311C145.273 18.1298 145.38 17.6725 145.38 17.1591C145.38 16.6458 145.273 16.1931 145.058 15.8011C144.844 15.3998 144.545 15.0918 144.162 14.8771C143.789 14.6625 143.364 14.5551 142.888 14.5551C142.412 14.5551 141.983 14.6625 141.6 14.8771C141.227 15.0918 140.928 15.3998 140.704 15.8011C140.49 16.1931 140.382 16.6458 140.382 17.1591C140.382 17.6725 140.49 18.1298 140.704 18.5311C140.928 18.9231 141.227 19.2311 141.6 19.4551C141.983 19.6698 142.412 19.7771 142.888 19.7771ZM156.17 19.6931V22.5911H154.91V20.8691H148.708V22.5911H147.434V19.6931H147.826C148.302 19.6651 148.629 19.3291 148.806 18.6851C148.984 18.0411 149.105 17.1311 149.17 15.9551L149.282 13.4491H155.036V19.6931H156.17ZM150.402 16.0531C150.365 16.9865 150.286 17.7611 150.164 18.3771C150.052 18.9838 149.842 19.4225 149.534 19.6931H153.692V14.6251H150.472L150.402 16.0531ZM160.567 13.3791C161.594 13.3791 162.378 13.6311 162.919 14.1351C163.47 14.6391 163.745 15.3905 163.745 16.3891V20.8691H162.471V19.8891C162.247 20.2345 161.925 20.5005 161.505 20.6871C161.094 20.8645 160.604 20.9531 160.035 20.9531C159.204 20.9531 158.537 20.7525 158.033 20.3511C157.538 19.9498 157.291 19.4225 157.291 18.7691C157.291 18.1158 157.529 17.5931 158.005 17.2011C158.481 16.7998 159.237 16.5991 160.273 16.5991H162.401V16.3331C162.401 15.7545 162.233 15.3111 161.897 15.0031C161.561 14.6951 161.066 14.5411 160.413 14.5411C159.974 14.5411 159.545 14.6158 159.125 14.7651C158.705 14.9051 158.35 15.0965 158.061 15.3391L157.501 14.3311C157.884 14.0231 158.341 13.7898 158.873 13.6311C159.405 13.4631 159.97 13.3791 160.567 13.3791ZM160.259 19.9171C160.772 19.9171 161.216 19.8051 161.589 19.5811C161.962 19.3478 162.233 19.0211 162.401 18.6011V17.5651H160.329C159.19 17.5651 158.621 17.9478 158.621 18.7131C158.621 19.0865 158.766 19.3805 159.055 19.5951C159.344 19.8098 159.746 19.9171 160.259 19.9171Z" fill="white"/>
</svg>
