<svg width="16" height="11" viewBox="0 0 16 11" fill="none" xmlns="http://www.w3.org/2000/svg">
<path d="M15.282 1.64526L15.301 1.7697C15.1169 1.11637 14.6198 0.612243 13.988 0.42875L13.9747 0.425576C12.7868 0.103036 8.00644 0.103036 8.00644 0.103036C8.00644 0.103036 3.23819 0.0966868 2.03819 0.425576C1.39438 0.612242 0.896602 1.11637 0.715649 1.75637L0.712475 1.7697C0.268665 4.0878 0.265491 6.8732 0.732157 9.3551L0.712475 9.22939C0.896602 9.88272 1.39374 10.3868 2.02549 10.5703L2.03882 10.5735C3.22549 10.8967 8.00708 10.8967 8.00708 10.8967C8.00708 10.8967 12.7747 10.8967 13.9753 10.5735C14.6198 10.3868 15.1176 9.88272 15.2985 9.24272L15.3017 9.22939C15.5036 8.15129 15.6191 6.91066 15.6191 5.64335C15.6191 5.597 15.6191 5.55002 15.6185 5.50304C15.6191 5.45986 15.6191 5.40843 15.6191 5.357C15.6191 4.08907 15.5036 2.84843 15.282 1.64526ZM6.48136 7.81796V3.18748L10.4598 5.50621L6.48136 7.81796Z" fill="#FF0000"/>
</svg>
